<mxfile host="app.diagrams.net" agent="Mozilla/5.0 (Windows NT 10.0; Win64; x64) AppleWebKit/537.36 (KHTML, like Gecko) Chrome/139.0.0.0 Safari/537.36" version="28.1.1">
  <diagram name="Page-1" id="ZosSx44dg7eUA4PI9dah">
    <mxGraphModel dx="1722" dy="507" grid="1" gridSize="10" guides="1" tooltips="1" connect="1" arrows="1" fold="1" page="1" pageScale="1" pageWidth="850" pageHeight="1100" math="0" shadow="0">
      <root>
        <mxCell id="0" />
        <mxCell id="1" parent="0" />
        <mxCell id="673PW_mDuS-jWzIN35Wk-1" value="Orders" style="rounded=1;whiteSpace=wrap;html=1;" parent="1" vertex="1">
          <mxGeometry x="190" y="500" width="120" height="60" as="geometry" />
        </mxCell>
        <mxCell id="673PW_mDuS-jWzIN35Wk-2" value="Reviews" style="rounded=1;whiteSpace=wrap;html=1;" parent="1" vertex="1">
          <mxGeometry x="440" y="305" width="120" height="60" as="geometry" />
        </mxCell>
        <mxCell id="673PW_mDuS-jWzIN35Wk-3" value="Customers" style="rounded=1;whiteSpace=wrap;html=1;" parent="1" vertex="1">
          <mxGeometry x="80" y="292.5" width="120" height="60" as="geometry" />
        </mxCell>
        <mxCell id="673PW_mDuS-jWzIN35Wk-4" value="OrderDetails" style="rounded=1;whiteSpace=wrap;html=1;" parent="1" vertex="1">
          <mxGeometry x="570" y="410" width="120" height="60" as="geometry" />
        </mxCell>
        <mxCell id="673PW_mDuS-jWzIN35Wk-5" value="MenuItems" style="rounded=1;whiteSpace=wrap;html=1;" parent="1" vertex="1">
          <mxGeometry x="560" y="740" width="120" height="60" as="geometry" />
        </mxCell>
        <mxCell id="673PW_mDuS-jWzIN35Wk-6" value="Payments" style="rounded=1;whiteSpace=wrap;html=1;" parent="1" vertex="1">
          <mxGeometry x="240" y="745" width="120" height="60" as="geometry" />
        </mxCell>
        <mxCell id="673PW_mDuS-jWzIN35Wk-9" value="" style="endArrow=none;html=1;rounded=0;exitX=0.375;exitY=0.125;exitDx=0;exitDy=0;exitPerimeter=0;" parent="1" source="eedsvJJhNy6EJihypTpJ-27" edge="1">
          <mxGeometry width="50" height="50" relative="1" as="geometry">
            <mxPoint x="50" y="160" as="sourcePoint" />
            <mxPoint x="160" y="360" as="targetPoint" />
          </mxGeometry>
        </mxCell>
        <mxCell id="eedsvJJhNy6EJihypTpJ-35" value="1" style="edgeLabel;html=1;align=center;verticalAlign=middle;resizable=0;points=[];" parent="673PW_mDuS-jWzIN35Wk-9" vertex="1" connectable="0">
          <mxGeometry x="0.3103" y="-2" relative="1" as="geometry">
            <mxPoint x="-1" as="offset" />
          </mxGeometry>
        </mxCell>
        <mxCell id="673PW_mDuS-jWzIN35Wk-10" value="" style="endArrow=none;html=1;rounded=0;" parent="1" edge="1">
          <mxGeometry width="50" height="50" relative="1" as="geometry">
            <mxPoint x="310" y="520" as="sourcePoint" />
            <mxPoint x="480" y="520" as="targetPoint" />
          </mxGeometry>
        </mxCell>
        <mxCell id="eedsvJJhNy6EJihypTpJ-37" value="1" style="edgeLabel;html=1;align=center;verticalAlign=middle;resizable=0;points=[];" parent="673PW_mDuS-jWzIN35Wk-10" vertex="1" connectable="0">
          <mxGeometry x="-0.3137" y="3" relative="1" as="geometry">
            <mxPoint as="offset" />
          </mxGeometry>
        </mxCell>
        <mxCell id="673PW_mDuS-jWzIN35Wk-12" value="" style="endArrow=none;html=1;rounded=0;" parent="1" edge="1">
          <mxGeometry width="50" height="50" relative="1" as="geometry">
            <mxPoint x="480" y="520" as="sourcePoint" />
            <mxPoint x="480" y="440" as="targetPoint" />
          </mxGeometry>
        </mxCell>
        <mxCell id="673PW_mDuS-jWzIN35Wk-13" value="" style="endArrow=none;html=1;rounded=0;" parent="1" edge="1">
          <mxGeometry width="50" height="50" relative="1" as="geometry">
            <mxPoint x="480" y="440" as="sourcePoint" />
            <mxPoint x="570" y="439.5" as="targetPoint" />
          </mxGeometry>
        </mxCell>
        <mxCell id="eedsvJJhNy6EJihypTpJ-38" value="M" style="edgeLabel;html=1;align=center;verticalAlign=middle;resizable=0;points=[];" parent="673PW_mDuS-jWzIN35Wk-13" vertex="1" connectable="0">
          <mxGeometry x="0.0006" y="5" relative="1" as="geometry">
            <mxPoint as="offset" />
          </mxGeometry>
        </mxCell>
        <mxCell id="673PW_mDuS-jWzIN35Wk-14" value="" style="endArrow=none;html=1;rounded=0;entryX=0.567;entryY=1.05;entryDx=0;entryDy=0;exitX=0.65;exitY=-0.033;exitDx=0;exitDy=0;exitPerimeter=0;entryPerimeter=0;" parent="1" source="673PW_mDuS-jWzIN35Wk-5" target="673PW_mDuS-jWzIN35Wk-4" edge="1">
          <mxGeometry width="50" height="50" relative="1" as="geometry">
            <mxPoint x="730" y="410" as="sourcePoint" />
            <mxPoint x="670" y="320" as="targetPoint" />
          </mxGeometry>
        </mxCell>
        <mxCell id="eedsvJJhNy6EJihypTpJ-39" value="1" style="edgeLabel;html=1;align=center;verticalAlign=middle;resizable=0;points=[];" parent="673PW_mDuS-jWzIN35Wk-14" vertex="1" connectable="0">
          <mxGeometry x="-0.8137" y="-2" relative="1" as="geometry">
            <mxPoint as="offset" />
          </mxGeometry>
        </mxCell>
        <mxCell id="eedsvJJhNy6EJihypTpJ-40" value="M" style="edgeLabel;html=1;align=center;verticalAlign=middle;resizable=0;points=[];" parent="673PW_mDuS-jWzIN35Wk-14" vertex="1" connectable="0">
          <mxGeometry x="0.4189" y="1" relative="1" as="geometry">
            <mxPoint as="offset" />
          </mxGeometry>
        </mxCell>
        <mxCell id="673PW_mDuS-jWzIN35Wk-15" value="" style="endArrow=none;html=1;rounded=0;exitX=0.333;exitY=0;exitDx=0;exitDy=0;exitPerimeter=0;" parent="1" source="673PW_mDuS-jWzIN35Wk-6" edge="1">
          <mxGeometry width="50" height="50" relative="1" as="geometry">
            <mxPoint x="190" y="350" as="sourcePoint" />
            <mxPoint x="280" y="562" as="targetPoint" />
          </mxGeometry>
        </mxCell>
        <mxCell id="eedsvJJhNy6EJihypTpJ-41" value="1" style="edgeLabel;html=1;align=center;verticalAlign=middle;resizable=0;points=[];" parent="673PW_mDuS-jWzIN35Wk-15" vertex="1" connectable="0">
          <mxGeometry x="0.7304" y="2" relative="1" as="geometry">
            <mxPoint as="offset" />
          </mxGeometry>
        </mxCell>
        <mxCell id="eedsvJJhNy6EJihypTpJ-44" value="1" style="edgeLabel;html=1;align=center;verticalAlign=middle;resizable=0;points=[];" parent="673PW_mDuS-jWzIN35Wk-15" vertex="1" connectable="0">
          <mxGeometry x="-0.7268" relative="1" as="geometry">
            <mxPoint as="offset" />
          </mxGeometry>
        </mxCell>
        <mxCell id="673PW_mDuS-jWzIN35Wk-16" value="OrderID" style="ellipse;whiteSpace=wrap;html=1;gradientColor=default;shadow=1;" parent="1" vertex="1">
          <mxGeometry y="420" width="80" height="50" as="geometry" />
        </mxCell>
        <mxCell id="673PW_mDuS-jWzIN35Wk-21" value="CustomerID" style="ellipse;whiteSpace=wrap;html=1;gradientColor=default;shadow=1;" parent="1" vertex="1">
          <mxGeometry y="500" width="80" height="50" as="geometry" />
        </mxCell>
        <mxCell id="673PW_mDuS-jWzIN35Wk-22" value="OrderDate" style="ellipse;whiteSpace=wrap;html=1;" parent="1" vertex="1">
          <mxGeometry y="580" width="80" height="50" as="geometry" />
        </mxCell>
        <mxCell id="673PW_mDuS-jWzIN35Wk-23" value="Status" style="ellipse;whiteSpace=wrap;html=1;" parent="1" vertex="1">
          <mxGeometry x="70" y="645" width="80" height="50" as="geometry" />
        </mxCell>
        <mxCell id="673PW_mDuS-jWzIN35Wk-24" value="" style="endArrow=none;html=1;rounded=0;exitX=0;exitY=0;exitDx=0;exitDy=0;entryX=0.875;entryY=0.8;entryDx=0;entryDy=0;entryPerimeter=0;" parent="1" source="673PW_mDuS-jWzIN35Wk-1" target="673PW_mDuS-jWzIN35Wk-16" edge="1">
          <mxGeometry width="50" height="50" relative="1" as="geometry">
            <mxPoint x="100" y="520" as="sourcePoint" />
            <mxPoint x="150" y="470" as="targetPoint" />
          </mxGeometry>
        </mxCell>
        <mxCell id="673PW_mDuS-jWzIN35Wk-25" value="" style="endArrow=none;html=1;rounded=0;exitX=1.025;exitY=0.38;exitDx=0;exitDy=0;exitPerimeter=0;" parent="1" source="673PW_mDuS-jWzIN35Wk-21" edge="1">
          <mxGeometry width="50" height="50" relative="1" as="geometry">
            <mxPoint x="140" y="570" as="sourcePoint" />
            <mxPoint x="190" y="520" as="targetPoint" />
          </mxGeometry>
        </mxCell>
        <mxCell id="673PW_mDuS-jWzIN35Wk-26" value="" style="endArrow=none;html=1;rounded=0;" parent="1" source="673PW_mDuS-jWzIN35Wk-22" edge="1">
          <mxGeometry width="50" height="50" relative="1" as="geometry">
            <mxPoint x="140" y="590" as="sourcePoint" />
            <mxPoint x="190" y="540" as="targetPoint" />
          </mxGeometry>
        </mxCell>
        <mxCell id="673PW_mDuS-jWzIN35Wk-27" value="" style="endArrow=none;html=1;rounded=0;exitX=0.625;exitY=0.02;exitDx=0;exitDy=0;exitPerimeter=0;" parent="1" source="673PW_mDuS-jWzIN35Wk-23" edge="1">
          <mxGeometry width="50" height="50" relative="1" as="geometry">
            <mxPoint x="150" y="610" as="sourcePoint" />
            <mxPoint x="200" y="560" as="targetPoint" />
          </mxGeometry>
        </mxCell>
        <mxCell id="673PW_mDuS-jWzIN35Wk-28" value="Address" style="ellipse;whiteSpace=wrap;html=1;" parent="1" vertex="1">
          <mxGeometry x="230" y="210" width="80" height="50" as="geometry" />
        </mxCell>
        <mxCell id="673PW_mDuS-jWzIN35Wk-29" value="OrderID" style="ellipse;whiteSpace=wrap;html=1;gradientColor=default;shadow=1;" parent="1" vertex="1">
          <mxGeometry x="345" y="150" width="80" height="50" as="geometry" />
        </mxCell>
        <mxCell id="673PW_mDuS-jWzIN35Wk-30" value="Phone" style="ellipse;whiteSpace=wrap;html=1;strokeColor=default;gradientColor=none;fillColor=default;shadow=0;fillStyle=auto;" parent="1" vertex="1">
          <mxGeometry x="180" y="130" width="80" height="50" as="geometry" />
        </mxCell>
        <mxCell id="673PW_mDuS-jWzIN35Wk-31" value="FullName" style="ellipse;whiteSpace=wrap;html=1;" parent="1" vertex="1">
          <mxGeometry x="40" y="130" width="80" height="50" as="geometry" />
        </mxCell>
        <mxCell id="673PW_mDuS-jWzIN35Wk-32" value="CustomerID" style="ellipse;whiteSpace=wrap;html=1;gradientColor=default;shadow=1;" parent="1" vertex="1">
          <mxGeometry y="220" width="80" height="50" as="geometry" />
        </mxCell>
        <mxCell id="673PW_mDuS-jWzIN35Wk-34" value="" style="endArrow=none;html=1;rounded=0;exitX=0;exitY=0;exitDx=0;exitDy=0;" parent="1" source="673PW_mDuS-jWzIN35Wk-3" edge="1">
          <mxGeometry width="50" height="50" relative="1" as="geometry">
            <mxPoint x="10" y="320" as="sourcePoint" />
            <mxPoint x="60" y="270" as="targetPoint" />
          </mxGeometry>
        </mxCell>
        <mxCell id="673PW_mDuS-jWzIN35Wk-35" value="" style="endArrow=none;html=1;rounded=0;entryX=0.613;entryY=1.02;entryDx=0;entryDy=0;entryPerimeter=0;" parent="1" target="673PW_mDuS-jWzIN35Wk-31" edge="1">
          <mxGeometry width="50" height="50" relative="1" as="geometry">
            <mxPoint x="110" y="290" as="sourcePoint" />
            <mxPoint x="160" y="250" as="targetPoint" />
          </mxGeometry>
        </mxCell>
        <mxCell id="673PW_mDuS-jWzIN35Wk-36" value="" style="endArrow=none;html=1;rounded=0;exitX=0.75;exitY=0;exitDx=0;exitDy=0;" parent="1" source="673PW_mDuS-jWzIN35Wk-3" target="673PW_mDuS-jWzIN35Wk-30" edge="1">
          <mxGeometry width="50" height="50" relative="1" as="geometry">
            <mxPoint x="130" y="300" as="sourcePoint" />
            <mxPoint x="180" y="250" as="targetPoint" />
          </mxGeometry>
        </mxCell>
        <mxCell id="673PW_mDuS-jWzIN35Wk-37" value="" style="endArrow=none;html=1;rounded=0;entryX=0.075;entryY=0.82;entryDx=0;entryDy=0;entryPerimeter=0;exitX=1;exitY=0;exitDx=0;exitDy=0;" parent="1" source="673PW_mDuS-jWzIN35Wk-3" target="673PW_mDuS-jWzIN35Wk-28" edge="1">
          <mxGeometry width="50" height="50" relative="1" as="geometry">
            <mxPoint x="190" y="300" as="sourcePoint" />
            <mxPoint x="240" y="250" as="targetPoint" />
          </mxGeometry>
        </mxCell>
        <mxCell id="673PW_mDuS-jWzIN35Wk-39" value="Comment" style="ellipse;whiteSpace=wrap;html=1;" parent="1" vertex="1">
          <mxGeometry x="620" y="210" width="80" height="50" as="geometry" />
        </mxCell>
        <mxCell id="673PW_mDuS-jWzIN35Wk-41" value="Rating" style="ellipse;whiteSpace=wrap;html=1;" parent="1" vertex="1">
          <mxGeometry x="590" y="140" width="80" height="50" as="geometry" />
        </mxCell>
        <mxCell id="673PW_mDuS-jWzIN35Wk-42" value="CustomerID" style="ellipse;whiteSpace=wrap;html=1;gradientColor=default;shadow=1;" parent="1" vertex="1">
          <mxGeometry x="480" y="140" width="80" height="50" as="geometry" />
        </mxCell>
        <mxCell id="673PW_mDuS-jWzIN35Wk-43" value="ReviewID" style="ellipse;whiteSpace=wrap;html=1;gradientColor=default;shadow=1;" parent="1" vertex="1">
          <mxGeometry x="330" y="230" width="80" height="50" as="geometry" />
        </mxCell>
        <mxCell id="673PW_mDuS-jWzIN35Wk-46" value="" style="endArrow=none;html=1;rounded=0;entryX=1;entryY=1;entryDx=0;entryDy=0;exitX=-0.017;exitY=0.133;exitDx=0;exitDy=0;exitPerimeter=0;" parent="1" source="673PW_mDuS-jWzIN35Wk-2" target="673PW_mDuS-jWzIN35Wk-43" edge="1">
          <mxGeometry width="50" height="50" relative="1" as="geometry">
            <mxPoint x="430" y="310" as="sourcePoint" />
            <mxPoint x="480" y="260" as="targetPoint" />
          </mxGeometry>
        </mxCell>
        <mxCell id="673PW_mDuS-jWzIN35Wk-47" value="" style="endArrow=none;html=1;rounded=0;exitX=0.25;exitY=0;exitDx=0;exitDy=0;" parent="1" source="673PW_mDuS-jWzIN35Wk-2" edge="1">
          <mxGeometry width="50" height="50" relative="1" as="geometry">
            <mxPoint x="360" y="240" as="sourcePoint" />
            <mxPoint x="410" y="190" as="targetPoint" />
          </mxGeometry>
        </mxCell>
        <mxCell id="673PW_mDuS-jWzIN35Wk-50" value="" style="endArrow=none;html=1;rounded=0;exitX=0.85;exitY=0.05;exitDx=0;exitDy=0;exitPerimeter=0;" parent="1" source="673PW_mDuS-jWzIN35Wk-2" edge="1">
          <mxGeometry width="50" height="50" relative="1" as="geometry">
            <mxPoint x="550" y="230" as="sourcePoint" />
            <mxPoint x="600" y="180" as="targetPoint" />
          </mxGeometry>
        </mxCell>
        <mxCell id="673PW_mDuS-jWzIN35Wk-52" value="" style="endArrow=none;html=1;rounded=0;exitX=0.975;exitY=0.4;exitDx=0;exitDy=0;exitPerimeter=0;entryX=0;entryY=1;entryDx=0;entryDy=0;" parent="1" source="673PW_mDuS-jWzIN35Wk-2" edge="1">
          <mxGeometry width="50" height="50" relative="1" as="geometry">
            <mxPoint x="560" y="380" as="sourcePoint" />
            <mxPoint x="634.321801481573" y="331.7662271999509" as="targetPoint" />
          </mxGeometry>
        </mxCell>
        <mxCell id="673PW_mDuS-jWzIN35Wk-53" value="MenuItemID" style="ellipse;whiteSpace=wrap;html=1;gradientColor=default;shadow=1;" parent="1" vertex="1">
          <mxGeometry x="760" y="470" width="80" height="50" as="geometry" />
        </mxCell>
        <mxCell id="673PW_mDuS-jWzIN35Wk-54" value="Quantity" style="ellipse;whiteSpace=wrap;html=1;" parent="1" vertex="1">
          <mxGeometry x="740" y="540" width="80" height="50" as="geometry" />
        </mxCell>
        <mxCell id="eedsvJJhNy6EJihypTpJ-11" value="" style="edgeStyle=orthogonalEdgeStyle;rounded=0;orthogonalLoop=1;jettySize=auto;html=1;" parent="1" source="673PW_mDuS-jWzIN35Wk-56" target="673PW_mDuS-jWzIN35Wk-61" edge="1">
          <mxGeometry relative="1" as="geometry" />
        </mxCell>
        <mxCell id="673PW_mDuS-jWzIN35Wk-56" value="OrderDetailID" style="ellipse;whiteSpace=wrap;html=1;gradientColor=default;shadow=1;" parent="1" vertex="1">
          <mxGeometry x="690" y="340" width="80" height="50" as="geometry" />
        </mxCell>
        <mxCell id="673PW_mDuS-jWzIN35Wk-58" value="Driver_name" style="ellipse;whiteSpace=wrap;html=1;" parent="1" vertex="1">
          <mxGeometry x="510" y="550" width="80" height="50" as="geometry" />
        </mxCell>
        <mxCell id="673PW_mDuS-jWzIN35Wk-59" value="Price" style="ellipse;whiteSpace=wrap;html=1;" parent="1" vertex="1">
          <mxGeometry x="650" y="580" width="80" height="50" as="geometry" />
        </mxCell>
        <mxCell id="673PW_mDuS-jWzIN35Wk-61" value="OrderID" style="ellipse;whiteSpace=wrap;html=1;gradientColor=default;shadow=1;" parent="1" vertex="1">
          <mxGeometry x="750" y="400" width="80" height="50" as="geometry" />
        </mxCell>
        <mxCell id="673PW_mDuS-jWzIN35Wk-62" value="" style="endArrow=none;html=1;rounded=0;entryX=0;entryY=1;entryDx=0;entryDy=0;" parent="1" target="673PW_mDuS-jWzIN35Wk-56" edge="1">
          <mxGeometry width="50" height="50" relative="1" as="geometry">
            <mxPoint x="680" y="410" as="sourcePoint" />
            <mxPoint x="730" y="360" as="targetPoint" />
          </mxGeometry>
        </mxCell>
        <mxCell id="673PW_mDuS-jWzIN35Wk-63" value="" style="endArrow=none;html=1;rounded=0;exitX=1;exitY=0.5;exitDx=0;exitDy=0;" parent="1" source="673PW_mDuS-jWzIN35Wk-4" edge="1">
          <mxGeometry width="50" height="50" relative="1" as="geometry">
            <mxPoint x="710" y="490" as="sourcePoint" />
            <mxPoint x="760" y="440" as="targetPoint" />
          </mxGeometry>
        </mxCell>
        <mxCell id="673PW_mDuS-jWzIN35Wk-64" value="" style="endArrow=none;html=1;rounded=0;exitX=1;exitY=1;exitDx=0;exitDy=0;" parent="1" source="673PW_mDuS-jWzIN35Wk-4" edge="1">
          <mxGeometry width="50" height="50" relative="1" as="geometry">
            <mxPoint x="710" y="550" as="sourcePoint" />
            <mxPoint x="760" y="500" as="targetPoint" />
          </mxGeometry>
        </mxCell>
        <mxCell id="673PW_mDuS-jWzIN35Wk-65" value="" style="endArrow=none;html=1;rounded=0;exitX=0.85;exitY=1.033;exitDx=0;exitDy=0;exitPerimeter=0;" parent="1" source="673PW_mDuS-jWzIN35Wk-4" edge="1">
          <mxGeometry width="50" height="50" relative="1" as="geometry">
            <mxPoint x="700" y="600" as="sourcePoint" />
            <mxPoint x="750" y="550" as="targetPoint" />
          </mxGeometry>
        </mxCell>
        <mxCell id="673PW_mDuS-jWzIN35Wk-66" value="" style="endArrow=none;html=1;rounded=0;exitX=0;exitY=0;exitDx=0;exitDy=0;" parent="1" source="673PW_mDuS-jWzIN35Wk-59" edge="1">
          <mxGeometry width="50" height="50" relative="1" as="geometry">
            <mxPoint x="610" y="520" as="sourcePoint" />
            <mxPoint x="660" y="470" as="targetPoint" />
          </mxGeometry>
        </mxCell>
        <mxCell id="673PW_mDuS-jWzIN35Wk-67" value="" style="endArrow=none;html=1;rounded=0;exitX=0.5;exitY=0;exitDx=0;exitDy=0;" parent="1" source="673PW_mDuS-jWzIN35Wk-58" edge="1">
          <mxGeometry width="50" height="50" relative="1" as="geometry">
            <mxPoint x="550" y="520" as="sourcePoint" />
            <mxPoint x="600" y="470" as="targetPoint" />
          </mxGeometry>
        </mxCell>
        <mxCell id="673PW_mDuS-jWzIN35Wk-68" value="CuisineType" style="ellipse;whiteSpace=wrap;html=1;" parent="1" vertex="1">
          <mxGeometry x="720" y="810" width="80" height="50" as="geometry" />
        </mxCell>
        <mxCell id="673PW_mDuS-jWzIN35Wk-69" value="Description" style="ellipse;whiteSpace=wrap;html=1;" parent="1" vertex="1">
          <mxGeometry x="590" y="910" width="80" height="50" as="geometry" />
        </mxCell>
        <mxCell id="673PW_mDuS-jWzIN35Wk-70" value="Price" style="ellipse;whiteSpace=wrap;html=1;" parent="1" vertex="1">
          <mxGeometry x="700" y="880" width="80" height="50" as="geometry" />
        </mxCell>
        <mxCell id="673PW_mDuS-jWzIN35Wk-71" value="Name" style="ellipse;whiteSpace=wrap;html=1;" parent="1" vertex="1">
          <mxGeometry x="490" y="890" width="80" height="50" as="geometry" />
        </mxCell>
        <mxCell id="673PW_mDuS-jWzIN35Wk-72" value="MenuItemID" style="ellipse;whiteSpace=wrap;html=1;gradientColor=default;shadow=1;" parent="1" vertex="1">
          <mxGeometry x="450" y="810" width="80" height="50" as="geometry" />
        </mxCell>
        <mxCell id="673PW_mDuS-jWzIN35Wk-73" value="PaymentID" style="ellipse;whiteSpace=wrap;html=1;gradientColor=default;shadow=1;" parent="1" vertex="1">
          <mxGeometry x="90" y="750" width="80" height="50" as="geometry" />
        </mxCell>
        <mxCell id="673PW_mDuS-jWzIN35Wk-74" value="Amount" style="ellipse;whiteSpace=wrap;html=1;" parent="1" vertex="1">
          <mxGeometry x="260" y="920" width="80" height="50" as="geometry" />
        </mxCell>
        <mxCell id="673PW_mDuS-jWzIN35Wk-75" value="Payment&lt;div&gt;Method&lt;/div&gt;" style="ellipse;whiteSpace=wrap;html=1;" parent="1" vertex="1">
          <mxGeometry x="360" y="910" width="80" height="50" as="geometry" />
        </mxCell>
        <mxCell id="673PW_mDuS-jWzIN35Wk-77" value="OrderID" style="ellipse;whiteSpace=wrap;html=1;shadow=1;gradientColor=default;" parent="1" vertex="1">
          <mxGeometry x="100" y="840" width="80" height="50" as="geometry" />
        </mxCell>
        <mxCell id="673PW_mDuS-jWzIN35Wk-78" value="" style="endArrow=none;html=1;rounded=0;exitX=0.938;exitY=0.18;exitDx=0;exitDy=0;exitPerimeter=0;" parent="1" source="673PW_mDuS-jWzIN35Wk-72" edge="1">
          <mxGeometry width="50" height="50" relative="1" as="geometry">
            <mxPoint x="510" y="840" as="sourcePoint" />
            <mxPoint x="560" y="790" as="targetPoint" />
          </mxGeometry>
        </mxCell>
        <mxCell id="673PW_mDuS-jWzIN35Wk-79" value="" style="endArrow=none;html=1;rounded=0;exitX=0.65;exitY=-0.04;exitDx=0;exitDy=0;exitPerimeter=0;" parent="1" source="673PW_mDuS-jWzIN35Wk-71" edge="1">
          <mxGeometry width="50" height="50" relative="1" as="geometry">
            <mxPoint x="540" y="850" as="sourcePoint" />
            <mxPoint x="590" y="800" as="targetPoint" />
          </mxGeometry>
        </mxCell>
        <mxCell id="673PW_mDuS-jWzIN35Wk-80" value="" style="endArrow=none;html=1;rounded=0;exitX=0.388;exitY=-0.02;exitDx=0;exitDy=0;exitPerimeter=0;" parent="1" source="673PW_mDuS-jWzIN35Wk-69" edge="1">
          <mxGeometry width="50" height="50" relative="1" as="geometry">
            <mxPoint x="570" y="850" as="sourcePoint" />
            <mxPoint x="620" y="800" as="targetPoint" />
          </mxGeometry>
        </mxCell>
        <mxCell id="673PW_mDuS-jWzIN35Wk-81" value="" style="endArrow=none;html=1;rounded=0;" parent="1" source="673PW_mDuS-jWzIN35Wk-70" edge="1">
          <mxGeometry width="50" height="50" relative="1" as="geometry">
            <mxPoint x="600" y="850" as="sourcePoint" />
            <mxPoint x="650" y="800" as="targetPoint" />
          </mxGeometry>
        </mxCell>
        <mxCell id="673PW_mDuS-jWzIN35Wk-82" value="" style="endArrow=none;html=1;rounded=0;exitX=1;exitY=0.75;exitDx=0;exitDy=0;" parent="1" source="673PW_mDuS-jWzIN35Wk-5" edge="1">
          <mxGeometry width="50" height="50" relative="1" as="geometry">
            <mxPoint x="680" y="870" as="sourcePoint" />
            <mxPoint x="730" y="820" as="targetPoint" />
          </mxGeometry>
        </mxCell>
        <mxCell id="673PW_mDuS-jWzIN35Wk-83" value="" style="endArrow=none;html=1;rounded=0;exitX=1;exitY=0.38;exitDx=0;exitDy=0;exitPerimeter=0;" parent="1" source="673PW_mDuS-jWzIN35Wk-73" edge="1">
          <mxGeometry width="50" height="50" relative="1" as="geometry">
            <mxPoint x="210" y="820" as="sourcePoint" />
            <mxPoint x="240" y="770" as="targetPoint" />
          </mxGeometry>
        </mxCell>
        <mxCell id="673PW_mDuS-jWzIN35Wk-84" value="" style="endArrow=none;html=1;rounded=0;entryX=0.067;entryY=0.967;entryDx=0;entryDy=0;entryPerimeter=0;" parent="1" source="673PW_mDuS-jWzIN35Wk-77" target="673PW_mDuS-jWzIN35Wk-6" edge="1">
          <mxGeometry width="50" height="50" relative="1" as="geometry">
            <mxPoint x="210" y="840" as="sourcePoint" />
            <mxPoint x="260" y="790" as="targetPoint" />
          </mxGeometry>
        </mxCell>
        <mxCell id="673PW_mDuS-jWzIN35Wk-85" value="" style="endArrow=none;html=1;rounded=0;entryX=0.25;entryY=1;entryDx=0;entryDy=0;" parent="1" target="673PW_mDuS-jWzIN35Wk-6" edge="1">
          <mxGeometry width="50" height="50" relative="1" as="geometry">
            <mxPoint x="190" y="910" as="sourcePoint" />
            <mxPoint x="240" y="860" as="targetPoint" />
          </mxGeometry>
        </mxCell>
        <mxCell id="673PW_mDuS-jWzIN35Wk-87" value="" style="endArrow=none;html=1;rounded=0;exitX=0.625;exitY=0;exitDx=0;exitDy=0;exitPerimeter=0;" parent="1" source="673PW_mDuS-jWzIN35Wk-75" edge="1">
          <mxGeometry width="50" height="50" relative="1" as="geometry">
            <mxPoint x="310" y="850" as="sourcePoint" />
            <mxPoint x="360" y="800" as="targetPoint" />
          </mxGeometry>
        </mxCell>
        <mxCell id="673PW_mDuS-jWzIN35Wk-88" value="" style="endArrow=none;html=1;rounded=0;exitX=0.5;exitY=0;exitDx=0;exitDy=0;" parent="1" source="673PW_mDuS-jWzIN35Wk-74" edge="1">
          <mxGeometry width="50" height="50" relative="1" as="geometry">
            <mxPoint x="250" y="850" as="sourcePoint" />
            <mxPoint x="300" y="800" as="targetPoint" />
          </mxGeometry>
        </mxCell>
        <mxCell id="673PW_mDuS-jWzIN35Wk-89" value="" style="endArrow=none;html=1;rounded=0;" parent="1" edge="1">
          <mxGeometry width="50" height="50" relative="1" as="geometry">
            <mxPoint x="200" y="320" as="sourcePoint" />
            <mxPoint x="440" y="320" as="targetPoint" />
          </mxGeometry>
        </mxCell>
        <mxCell id="eedsvJJhNy6EJihypTpJ-33" value="1" style="edgeLabel;html=1;align=center;verticalAlign=middle;resizable=0;points=[];" parent="673PW_mDuS-jWzIN35Wk-89" vertex="1" connectable="0">
          <mxGeometry x="-0.6528" y="3" relative="1" as="geometry">
            <mxPoint as="offset" />
          </mxGeometry>
        </mxCell>
        <mxCell id="eedsvJJhNy6EJihypTpJ-34" value="M" style="edgeLabel;html=1;align=center;verticalAlign=middle;resizable=0;points=[];" parent="673PW_mDuS-jWzIN35Wk-89" vertex="1" connectable="0">
          <mxGeometry x="0.6389" y="3" relative="1" as="geometry">
            <mxPoint as="offset" />
          </mxGeometry>
        </mxCell>
        <mxCell id="eedsvJJhNy6EJihypTpJ-3" value="" style="endArrow=none;html=1;rounded=0;exitX=0;exitY=0.6;exitDx=0;exitDy=0;exitPerimeter=0;entryX=0.953;entryY=0.668;entryDx=0;entryDy=0;entryPerimeter=0;" parent="1" source="673PW_mDuS-jWzIN35Wk-32" target="673PW_mDuS-jWzIN35Wk-32" edge="1">
          <mxGeometry width="50" height="50" relative="1" as="geometry">
            <mxPoint x="20" y="300" as="sourcePoint" />
            <mxPoint x="70" y="250" as="targetPoint" />
          </mxGeometry>
        </mxCell>
        <mxCell id="eedsvJJhNy6EJihypTpJ-4" value="" style="endArrow=none;html=1;rounded=0;" parent="1" edge="1">
          <mxGeometry width="50" height="50" relative="1" as="geometry">
            <mxPoint x="330" y="260" as="sourcePoint" />
            <mxPoint x="410" y="260" as="targetPoint" />
          </mxGeometry>
        </mxCell>
        <mxCell id="eedsvJJhNy6EJihypTpJ-5" value="" style="endArrow=none;dashed=1;html=1;rounded=0;exitX=0.082;exitY=0.68;exitDx=0;exitDy=0;exitPerimeter=0;" parent="1" source="673PW_mDuS-jWzIN35Wk-29" edge="1">
          <mxGeometry width="50" height="50" relative="1" as="geometry">
            <mxPoint x="370" y="230" as="sourcePoint" />
            <mxPoint x="420" y="184" as="targetPoint" />
          </mxGeometry>
        </mxCell>
        <mxCell id="eedsvJJhNy6EJihypTpJ-6" value="" style="endArrow=none;dashed=1;html=1;rounded=0;" parent="1" source="673PW_mDuS-jWzIN35Wk-42" edge="1">
          <mxGeometry width="50" height="50" relative="1" as="geometry">
            <mxPoint x="510" y="220" as="sourcePoint" />
            <mxPoint x="560" y="170" as="targetPoint" />
          </mxGeometry>
        </mxCell>
        <mxCell id="eedsvJJhNy6EJihypTpJ-7" value="" style="endArrow=none;dashed=1;html=1;rounded=0;exitX=0.115;exitY=0.715;exitDx=0;exitDy=0;exitPerimeter=0;" parent="1" source="673PW_mDuS-jWzIN35Wk-42" edge="1">
          <mxGeometry width="50" height="50" relative="1" as="geometry">
            <mxPoint x="510" y="220" as="sourcePoint" />
            <mxPoint x="548" y="176" as="targetPoint" />
          </mxGeometry>
        </mxCell>
        <mxCell id="eedsvJJhNy6EJihypTpJ-8" value="" style="endArrow=none;html=1;rounded=0;" parent="1" edge="1">
          <mxGeometry width="50" height="50" relative="1" as="geometry">
            <mxPoint y="455" as="sourcePoint" />
            <mxPoint x="80" y="455" as="targetPoint" />
          </mxGeometry>
        </mxCell>
        <mxCell id="eedsvJJhNy6EJihypTpJ-9" value="" style="endArrow=none;dashed=1;html=1;rounded=0;exitX=0.012;exitY=0.715;exitDx=0;exitDy=0;exitPerimeter=0;entryX=0.968;entryY=0.715;entryDx=0;entryDy=0;entryPerimeter=0;" parent="1" source="673PW_mDuS-jWzIN35Wk-21" target="673PW_mDuS-jWzIN35Wk-21" edge="1">
          <mxGeometry width="50" height="50" relative="1" as="geometry">
            <mxPoint x="20" y="580" as="sourcePoint" />
            <mxPoint x="70" y="530" as="targetPoint" />
          </mxGeometry>
        </mxCell>
        <mxCell id="eedsvJJhNy6EJihypTpJ-10" value="" style="endArrow=none;html=1;rounded=0;" parent="1" edge="1">
          <mxGeometry width="50" height="50" relative="1" as="geometry">
            <mxPoint x="690" y="375" as="sourcePoint" />
            <mxPoint x="770" y="375" as="targetPoint" />
          </mxGeometry>
        </mxCell>
        <mxCell id="eedsvJJhNy6EJihypTpJ-12" value="" style="endArrow=none;dashed=1;html=1;rounded=0;exitX=0.107;exitY=0.692;exitDx=0;exitDy=0;exitPerimeter=0;entryX=0.96;entryY=0.692;entryDx=0;entryDy=0;entryPerimeter=0;" parent="1" source="673PW_mDuS-jWzIN35Wk-61" target="673PW_mDuS-jWzIN35Wk-61" edge="1">
          <mxGeometry width="50" height="50" relative="1" as="geometry">
            <mxPoint x="770" y="480" as="sourcePoint" />
            <mxPoint x="820" y="430" as="targetPoint" />
          </mxGeometry>
        </mxCell>
        <mxCell id="eedsvJJhNy6EJihypTpJ-13" value="" style="endArrow=none;dashed=1;html=1;rounded=0;exitX=-0.003;exitY=0.68;exitDx=0;exitDy=0;exitPerimeter=0;entryX=0.938;entryY=0.656;entryDx=0;entryDy=0;entryPerimeter=0;" parent="1" source="673PW_mDuS-jWzIN35Wk-53" target="673PW_mDuS-jWzIN35Wk-53" edge="1">
          <mxGeometry width="50" height="50" relative="1" as="geometry">
            <mxPoint x="790" y="540" as="sourcePoint" />
            <mxPoint x="840" y="490" as="targetPoint" />
          </mxGeometry>
        </mxCell>
        <mxCell id="eedsvJJhNy6EJihypTpJ-15" value="" style="endArrow=none;html=1;rounded=0;exitX=0.093;exitY=0.704;exitDx=0;exitDy=0;exitPerimeter=0;entryX=0.931;entryY=0.68;entryDx=0;entryDy=0;entryPerimeter=0;" parent="1" source="673PW_mDuS-jWzIN35Wk-73" target="673PW_mDuS-jWzIN35Wk-73" edge="1">
          <mxGeometry width="50" height="50" relative="1" as="geometry">
            <mxPoint x="110" y="830" as="sourcePoint" />
            <mxPoint x="160" y="780" as="targetPoint" />
          </mxGeometry>
        </mxCell>
        <mxCell id="eedsvJJhNy6EJihypTpJ-16" value="" style="endArrow=none;dashed=1;html=1;rounded=0;exitX=0.041;exitY=0.668;exitDx=0;exitDy=0;exitPerimeter=0;entryX=0.968;entryY=0.692;entryDx=0;entryDy=0;entryPerimeter=0;" parent="1" source="673PW_mDuS-jWzIN35Wk-77" target="673PW_mDuS-jWzIN35Wk-77" edge="1">
          <mxGeometry width="50" height="50" relative="1" as="geometry">
            <mxPoint x="120" y="920" as="sourcePoint" />
            <mxPoint x="170" y="870" as="targetPoint" />
          </mxGeometry>
        </mxCell>
        <mxCell id="eedsvJJhNy6EJihypTpJ-17" value="" style="endArrow=none;html=1;rounded=0;exitX=0.107;exitY=0.68;exitDx=0;exitDy=0;exitPerimeter=0;entryX=0.975;entryY=0.68;entryDx=0;entryDy=0;entryPerimeter=0;" parent="1" source="673PW_mDuS-jWzIN35Wk-72" target="673PW_mDuS-jWzIN35Wk-72" edge="1">
          <mxGeometry width="50" height="50" relative="1" as="geometry">
            <mxPoint x="470" y="890" as="sourcePoint" />
            <mxPoint x="520" y="840" as="targetPoint" />
          </mxGeometry>
        </mxCell>
        <mxCell id="eedsvJJhNy6EJihypTpJ-22" value="ReviewDate" style="ellipse;whiteSpace=wrap;html=1;" parent="1" vertex="1">
          <mxGeometry x="635" y="302.5" width="85" height="40" as="geometry" />
        </mxCell>
        <mxCell id="eedsvJJhNy6EJihypTpJ-23" value="PaymentDate" style="ellipse;whiteSpace=wrap;html=1;" parent="1" vertex="1">
          <mxGeometry x="140" y="910" width="90" height="50" as="geometry" />
        </mxCell>
        <mxCell id="eedsvJJhNy6EJihypTpJ-25" value="" style="endArrow=none;html=1;rounded=0;exitX=0.653;exitY=0.083;exitDx=0;exitDy=0;exitPerimeter=0;" parent="1" source="673PW_mDuS-jWzIN35Wk-2" edge="1">
          <mxGeometry width="50" height="50" relative="1" as="geometry">
            <mxPoint x="520" y="300" as="sourcePoint" />
            <mxPoint x="520" y="190" as="targetPoint" />
          </mxGeometry>
        </mxCell>
        <mxCell id="eedsvJJhNy6EJihypTpJ-26" value="" style="endArrow=none;html=1;rounded=0;exitX=0.308;exitY=-0.017;exitDx=0;exitDy=0;exitPerimeter=0;" parent="1" source="673PW_mDuS-jWzIN35Wk-1" target="eedsvJJhNy6EJihypTpJ-27" edge="1">
          <mxGeometry width="50" height="50" relative="1" as="geometry">
            <mxPoint x="227" y="499" as="sourcePoint" />
            <mxPoint x="160" y="360" as="targetPoint" />
          </mxGeometry>
        </mxCell>
        <mxCell id="eedsvJJhNy6EJihypTpJ-36" value="M" style="edgeLabel;html=1;align=center;verticalAlign=middle;resizable=0;points=[];" parent="eedsvJJhNy6EJihypTpJ-26" vertex="1" connectable="0">
          <mxGeometry x="-0.0336" y="2" relative="1" as="geometry">
            <mxPoint as="offset" />
          </mxGeometry>
        </mxCell>
        <mxCell id="eedsvJJhNy6EJihypTpJ-27" value="Make" style="rhombus;whiteSpace=wrap;html=1;" parent="1" vertex="1">
          <mxGeometry x="150" y="400" width="80" height="80" as="geometry" />
        </mxCell>
        <mxCell id="eedsvJJhNy6EJihypTpJ-29" value="Give" style="rhombus;whiteSpace=wrap;html=1;" parent="1" vertex="1">
          <mxGeometry x="280" y="280" width="80" height="80" as="geometry" />
        </mxCell>
        <mxCell id="eedsvJJhNy6EJihypTpJ-30" value="Contain" style="rhombus;whiteSpace=wrap;html=1;" parent="1" vertex="1">
          <mxGeometry x="385" y="480" width="80" height="80" as="geometry" />
        </mxCell>
        <mxCell id="eedsvJJhNy6EJihypTpJ-31" value="Include" style="rhombus;whiteSpace=wrap;html=1;" parent="1" vertex="1">
          <mxGeometry x="600" y="615" width="80" height="80" as="geometry" />
        </mxCell>
        <mxCell id="eedsvJJhNy6EJihypTpJ-32" value="Has" style="rhombus;whiteSpace=wrap;html=1;" parent="1" vertex="1">
          <mxGeometry x="240" y="630" width="80" height="80" as="geometry" />
        </mxCell>
        <mxCell id="fZ_rg2wfB5hmj2OVZFJw-1" value="" style="endArrow=none;html=1;rounded=0;exitX=1;exitY=0.25;exitDx=0;exitDy=0;" edge="1" parent="1" source="673PW_mDuS-jWzIN35Wk-2">
          <mxGeometry width="50" height="50" relative="1" as="geometry">
            <mxPoint x="580" y="300" as="sourcePoint" />
            <mxPoint x="630" y="250" as="targetPoint" />
          </mxGeometry>
        </mxCell>
        <mxCell id="fZ_rg2wfB5hmj2OVZFJw-2" value="" style="endArrow=none;html=1;rounded=0;" edge="1" parent="1">
          <mxGeometry width="50" height="50" relative="1" as="geometry">
            <mxPoint x="-40" y="620" as="sourcePoint" />
            <mxPoint x="70" y="660" as="targetPoint" />
          </mxGeometry>
        </mxCell>
        <mxCell id="fZ_rg2wfB5hmj2OVZFJw-3" value="" style="endArrow=none;html=1;rounded=0;entryX=0;entryY=0.5;entryDx=0;entryDy=0;" edge="1" parent="1" target="673PW_mDuS-jWzIN35Wk-23">
          <mxGeometry width="50" height="50" relative="1" as="geometry">
            <mxPoint x="-90" y="670" as="sourcePoint" />
            <mxPoint x="60" y="680" as="targetPoint" />
          </mxGeometry>
        </mxCell>
        <mxCell id="fZ_rg2wfB5hmj2OVZFJw-4" value="" style="endArrow=none;html=1;rounded=0;exitX=0.933;exitY=0.22;exitDx=0;exitDy=0;exitPerimeter=0;" edge="1" parent="1" source="fZ_rg2wfB5hmj2OVZFJw-8">
          <mxGeometry width="50" height="50" relative="1" as="geometry">
            <mxPoint x="-80" y="730" as="sourcePoint" />
            <mxPoint x="70" y="680" as="targetPoint" />
          </mxGeometry>
        </mxCell>
        <mxCell id="fZ_rg2wfB5hmj2OVZFJw-5" value="" style="endArrow=none;html=1;rounded=0;" edge="1" parent="1">
          <mxGeometry width="50" height="50" relative="1" as="geometry">
            <mxPoint x="10" y="780" as="sourcePoint" />
            <mxPoint x="90" y="690" as="targetPoint" />
          </mxGeometry>
        </mxCell>
        <mxCell id="fZ_rg2wfB5hmj2OVZFJw-6" value="Pending" style="ellipse;whiteSpace=wrap;html=1;" vertex="1" parent="1">
          <mxGeometry x="-130" y="590" width="90" height="50" as="geometry" />
        </mxCell>
        <mxCell id="fZ_rg2wfB5hmj2OVZFJw-7" value="Shipped" style="ellipse;whiteSpace=wrap;html=1;" vertex="1" parent="1">
          <mxGeometry x="-120" y="650" width="90" height="50" as="geometry" />
        </mxCell>
        <mxCell id="fZ_rg2wfB5hmj2OVZFJw-8" value="Delivered" style="ellipse;whiteSpace=wrap;html=1;" vertex="1" parent="1">
          <mxGeometry x="-160" y="720" width="90" height="50" as="geometry" />
        </mxCell>
        <mxCell id="fZ_rg2wfB5hmj2OVZFJw-9" value="Canceled" style="ellipse;whiteSpace=wrap;html=1;" vertex="1" parent="1">
          <mxGeometry x="-70" y="770" width="90" height="50" as="geometry" />
        </mxCell>
        <mxCell id="fZ_rg2wfB5hmj2OVZFJw-10" value="CD" style="ellipse;whiteSpace=wrap;html=1;" vertex="1" parent="1">
          <mxGeometry x="480" y="970" width="70" height="50" as="geometry" />
        </mxCell>
        <mxCell id="fZ_rg2wfB5hmj2OVZFJw-12" value="VF-Cash" style="ellipse;whiteSpace=wrap;html=1;" vertex="1" parent="1">
          <mxGeometry x="425" y="1030" width="70" height="50" as="geometry" />
        </mxCell>
        <mxCell id="fZ_rg2wfB5hmj2OVZFJw-13" value="Cash" style="ellipse;whiteSpace=wrap;html=1;" vertex="1" parent="1">
          <mxGeometry x="330" y="1040" width="70" height="50" as="geometry" />
        </mxCell>
        <mxCell id="fZ_rg2wfB5hmj2OVZFJw-14" value="Fawry" style="ellipse;whiteSpace=wrap;html=1;" vertex="1" parent="1">
          <mxGeometry x="240" y="1020" width="70" height="50" as="geometry" />
        </mxCell>
        <mxCell id="fZ_rg2wfB5hmj2OVZFJw-15" value="" style="endArrow=none;html=1;rounded=0;exitX=1;exitY=0;exitDx=0;exitDy=0;entryX=0;entryY=1;entryDx=0;entryDy=0;" edge="1" parent="1" source="fZ_rg2wfB5hmj2OVZFJw-14" target="673PW_mDuS-jWzIN35Wk-75">
          <mxGeometry width="50" height="50" relative="1" as="geometry">
            <mxPoint x="320" y="1010" as="sourcePoint" />
            <mxPoint x="370" y="960" as="targetPoint" />
          </mxGeometry>
        </mxCell>
        <mxCell id="fZ_rg2wfB5hmj2OVZFJw-16" value="" style="endArrow=none;html=1;rounded=0;entryX=0.25;entryY=1;entryDx=0;entryDy=0;entryPerimeter=0;" edge="1" parent="1" source="fZ_rg2wfB5hmj2OVZFJw-13" target="673PW_mDuS-jWzIN35Wk-75">
          <mxGeometry width="50" height="50" relative="1" as="geometry">
            <mxPoint x="340" y="1010" as="sourcePoint" />
            <mxPoint x="390" y="960" as="targetPoint" />
          </mxGeometry>
        </mxCell>
        <mxCell id="fZ_rg2wfB5hmj2OVZFJw-17" value="" style="endArrow=none;html=1;rounded=0;entryX=0;entryY=0;entryDx=0;entryDy=0;" edge="1" parent="1" target="fZ_rg2wfB5hmj2OVZFJw-12">
          <mxGeometry width="50" height="50" relative="1" as="geometry">
            <mxPoint x="410" y="960" as="sourcePoint" />
            <mxPoint x="460" y="910" as="targetPoint" />
          </mxGeometry>
        </mxCell>
        <mxCell id="fZ_rg2wfB5hmj2OVZFJw-18" value="" style="endArrow=none;html=1;rounded=0;" edge="1" parent="1">
          <mxGeometry width="50" height="50" relative="1" as="geometry">
            <mxPoint x="441" y="946" as="sourcePoint" />
            <mxPoint x="490" y="980" as="targetPoint" />
          </mxGeometry>
        </mxCell>
      </root>
    </mxGraphModel>
  </diagram>
</mxfile>
